# xmcd
#
# Track frame offsets: 
#        150
#        16800
#        29550
#        44013
#        64987
#        80086
#        95230
#        109708
#        126587
#        140381
#        154074
#        167773
#        184295
#        201685
#
# Disc length: 2921 seconds
#
# Revision: 2
# Processed by: cddbd v1.5.2PL0 Copyright (c) Steve Scherf et al.
# Submitted via: ExactAudioCopyFreeDBPlugin 1.0
#
DISCID=d80b670e
DTITLE=Tom Astor - Freunde für´s Leben [CD 3)
DYEAR=2010
DGENRE=Country
TTITLE0=Sweet Caroline
TTITLE1=Tom Astor and Dolly Parton - To Daddy 
TTITLE2=Fremder (Stranger)
TTITLE3=Tom Astor and Kris Kristofferson - Me and Bobby McGee
TTITLE4=Tom Astor and The Bellamy Brothers - I Need More Of You (Ich bra
TTITLE4=uch´ mehr von dir)
TTITLE5=Komm, Komm, komm, Mädchen meiner Träume (Song Sung Blue)
TTITLE6=Tom Astor and Wanda Jackson - Santo Domingo
TTITLE7=Hinter´m Horizont
TTITLE8=Spanish Harlem (deutsch)
TTITLE9=Tom Astor and Lionel Cartwright - Rocky Mountain Man
TTITLE10=Viel vergeigt und viel erreicht (Banks Of The Ohio)
TTITLE11=Tom Astor and Kenny Rogers - We Are The Same (Wir sind alle gle
TTITLE11=ich)
TTITLE12=Young Eagle (Junger Adler) (Tom Astor and Joe Sun)
TTITLE13=Wenn ich auch geh´ (Danny Boy)
EXTD=
EXTT0=
EXTT1=
EXTT2=
EXTT3=
EXTT4=
EXTT5=
EXTT6=
EXTT7=
EXTT8=
EXTT9=
EXTT10=
EXTT11=
EXTT12=
EXTT13=
PLAYORDER=
